<?xml version="1.0" encoding="UTF-8" standalone="no"?>
<svg
   xmlns:dc="http://purl.org/dc/elements/1.1/"
   xmlns:cc="http://creativecommons.org/ns#"
   xmlns:rdf="http://www.w3.org/1999/02/22-rdf-syntax-ns#"
   xmlns:svg="http://www.w3.org/2000/svg"
   xmlns="http://www.w3.org/2000/svg"
   xmlns:sodipodi="http://sodipodi.sourceforge.net/DTD/sodipodi-0.dtd"
   xmlns:inkscape="http://www.inkscape.org/namespaces/inkscape"
   id="Layer_3"
   data-name="Layer 3"
   viewBox="0 0 155.237 41.632"
   version="1.1"
   sodipodi:docname="logo.svg"
   inkscape:version="0.92.5 (2060ec1f9f, 2020-04-08)">
  <metadata
     id="metadata4566">
    <rdf:RDF>
      <cc:Work
         rdf:about="">
        <dc:format>image/svg+xml</dc:format>
        <dc:type
           rdf:resource="http://purl.org/dc/dcmitype/StillImage" />
      </cc:Work>
    </rdf:RDF>
  </metadata>
  <sodipodi:namedview
     pagecolor="#ffffff"
     bordercolor="#666666"
     borderopacity="1"
     objecttolerance="10"
     gridtolerance="10"
     guidetolerance="10"
     inkscape:pageopacity="0"
     inkscape:pageshadow="2"
     inkscape:window-width="1180"
     inkscape:window-height="689"
     id="namedview4564"
     showgrid="false"
     inkscape:zoom="3.2796104"
     inkscape:cx="102.0053"
     inkscape:cy="-24.507711"
     inkscape:window-x="508"
     inkscape:window-y="130"
     inkscape:window-maximized="0"
     inkscape:current-layer="Layer_3" />
  <defs
     id="defs4545">
    <style
       id="style4543">.cls-1{fill:#00bfd8;}.cls-2{fill:#fff;}.cls-3{fill:#393939;}</style>
  </defs>
  <title
     id="title4547">logo</title>
  <path
     class="cls-2"
     d="M19.155,30.414a8.617,8.617,0,0,1-3.349-.613,7.227,7.227,0,0,1-4.115-4.341,9.744,9.744,0,0,1-.543-3.311,11.439,11.439,0,0,1,.954-4.622,12.191,12.191,0,0,1,2.615-3.835,12.607,12.607,0,0,1,3.928-2.619,12.233,12.233,0,0,1,4.886-.975,8.317,8.317,0,0,1,5.07,1.4,4.747,4.747,0,0,1,1.89,4.059q0,6.324-11.3,6.324H17.805q-0.711,0-1.5-.075v0.487a5.34,5.34,0,0,0,.9,3.219,3.276,3.276,0,0,0,2.844,1.235,5.9,5.9,0,0,0,2.825-.711,5.493,5.493,0,0,0,2.114-1.983l3.966,1.234a10.587,10.587,0,0,1-1.833,2.077,11.972,11.972,0,0,1-2.376,1.627,12.926,12.926,0,0,1-2.714,1.051A11.3,11.3,0,0,1,19.155,30.414Zm3.629-16.686a5.165,5.165,0,0,0-2.02.392A5.682,5.682,0,0,0,19.1,15.186a7.625,7.625,0,0,0-1.29,1.576,8.924,8.924,0,0,0-.9,1.908c0.4,0.026.788,0.039,1.16,0.039h1.16a21.126,21.126,0,0,0,3.049-.187A7.047,7.047,0,0,0,24.3,17.96a2.714,2.714,0,0,0,1.1-.875,2.073,2.073,0,0,0,.337-1.178,1.821,1.821,0,0,0-.823-1.627,3.815,3.815,0,0,0-2.139-.551h0Z"
     id="path4551" />
  <text
     xml:space="preserve"
     style="font-style:normal;font-variant:normal;font-weight:bold;font-stretch:normal;font-size:48px;line-height:1.25;font-family:'Linux Biolinum G';-inkscape-font-specification:'Linux Biolinum G Bold';letter-spacing:0px;word-spacing:0px;fill:#00bfd8;fill-opacity:1;stroke:none"
     x="18.233564"
     y="37.110603"
     id="text4570"><tspan
       sodipodi:role="line"
       id="tspan4568"
       x="18.233564"
       y="37.110603">Eleza</tspan></text>
</svg>
